HIERARCHY
ROOT hip
{
  OFFSET 0 0 0
  CHANNELS 6 Xposition Yposition Zposition Zrotation Yrotation Xrotation
  JOINT abdomen
  {
    OFFSET 0 20.6881 -0.73152
    CHANNELS 3 Zrotation Xrotation Yrotation
    JOINT chest
    {
      OFFSET 0 11.7043 -0.48768
      CHANNELS 3 Zrotation Xrotation Yrotation
      JOINT neck
      {
        OFFSET 0 22.1894 -2.19456
        CHANNELS 3 Zrotation Xrotation Yrotation
        JOINT head
        {
          OFFSET -0.24384 7.07133 1.2192
          CHANNELS 3 Zrotation Xrotation Yrotation
          JOINT leftEye
          {
            OFFSET 4.14528 8.04674 8.04672
            CHANNELS 3 Zrotation Xrotation Yrotation
            End Site
            {
              OFFSET 1 0 0
            }
          }
          JOINT rightEye
          {
            OFFSET -3.6576 8.04674 8.04672
            CHANNELS 3 Zrotation Xrotation Yrotation
            End Site
            {
              OFFSET 1 0 0
            }
          }
        }
      }
      JOINT rCollar
      {
        OFFSET -2.68224 19.2634 -4.8768
        CHANNELS 3 Zrotation Xrotation Yrotation
        JOINT rShldr
        {
          OFFSET -8.77824 -1.95073 1.46304
          CHANNELS 3 Zrotation Xrotation Yrotation
          JOINT rForeArm
          {
            OFFSET -28.1742 -1.7115 0.48768
            CHANNELS 3 Zrotation Xrotation Yrotation
            JOINT rHand
            {
              OFFSET -22.5879 0.773209 7.07136
              CHANNELS 3 Zrotation Xrotation Yrotation
              JOINT rThumb1
              {
                OFFSET -1.2192 -0.487915 3.41376
                CHANNELS 3 Zrotation Xrotation Yrotation
                JOINT rThumb2
                {
                  OFFSET -3.37035 -0.52449 3.41376
                  CHANNELS 3 Zrotation Xrotation Yrotation
                  End Site
                  {
                    OFFSET -1.78271 -1.18214 1.43049
                  }
                }
              }
              JOINT rIndex1
              {
                OFFSET -7.75947 0.938293 5.60832
                CHANNELS 3 Zrotation Xrotation Yrotation
                JOINT rIndex2
                {
                  OFFSET -2.54057 -0.884171 1.56538
                  CHANNELS 3 Zrotation Xrotation Yrotation
                  End Site
                  {
                    OFFSET -1.62519 -0.234802 1.16502
                  }
                }
              }
              JOINT rMid1
              {
                OFFSET -8.24714 1.18213 3.41376
                CHANNELS 3 Zrotation Xrotation Yrotation
                JOINT rMid2
                {
                  OFFSET -3.10165 -0.590103 1.0647
                  CHANNELS 3 Zrotation Xrotation Yrotation
                  End Site
                  {
                    OFFSET -2.48547 -0.328903 0.83742
                  }
                }
              }
              JOINT rRing1
              {
                OFFSET -8.82822 0.546677 1.51678
                CHANNELS 3 Zrotation Xrotation Yrotation
                JOINT rRing2
                {
                  OFFSET -2.60934 -0.819778 -0.0198488
                  CHANNELS 3 Zrotation Xrotation Yrotation
                  End Site
                  {
                    OFFSET -2.33842 -0.294052 0.168128
                  }
                }
              }
              JOINT rPinky1
              {
                OFFSET -8.27202 -0.0477905 -0.4584
                CHANNELS 3 Zrotation Xrotation Yrotation
                JOINT rPinky2
                {
                  OFFSET -1.82734 -0.647385 -0.700984
                  CHANNELS 3 Zrotation Xrotation Yrotation
                  End Site
                  {
                    OFFSET -1.69225 -0.51767 -0.607171
                  }
                }
              }
            }
          }
        }
      }
      JOINT lCollar
      {
        OFFSET 2.68224 19.2634 -4.8768
        CHANNELS 3 Zrotation Xrotation Yrotation
        JOINT lShldr
        {
          OFFSET 8.77824 -1.95073 1.46304
          CHANNELS 3 Zrotation Xrotation Yrotation
          JOINT lForeArm
          {
            OFFSET 28.1742 -1.7115 0.48768
            CHANNELS 3 Zrotation Xrotation Yrotation
            JOINT lHand
            {
              OFFSET 22.5879 0.773209 7.07136
              CHANNELS 3 Zrotation Xrotation Yrotation
              JOINT lThumb1
              {
                OFFSET 1.2192 -0.487915 3.41376
                CHANNELS 3 Zrotation Xrotation Yrotation
                JOINT lThumb2
                {
                  OFFSET 3.37035 -0.52449 3.41376
                  CHANNELS 3 Zrotation Xrotation Yrotation
                  End Site
                  {
                    OFFSET 1.78271 -1.18214 1.43049
                  }
                }
              }
              JOINT lIndex1
              {
                OFFSET 7.75947 0.938293 5.60832
                CHANNELS 3 Zrotation Xrotation Yrotation
                JOINT lIndex2
                {
                  OFFSET 2.54057 -0.884171 1.56538
                  CHANNELS 3 Zrotation Xrotation Yrotation
                  End Site
                  {
                    OFFSET 1.62519 -0.234802 1.16502
                  }
                }
              }
              JOINT lMid1
              {
                OFFSET 8.24714 1.18213 3.41376
                CHANNELS 3 Zrotation Xrotation Yrotation
                JOINT lMid2
                {
                  OFFSET 3.10165 -0.590103 1.0647
                  CHANNELS 3 Zrotation Xrotation Yrotation
                  End Site
                  {
                    OFFSET 2.48547 -0.328903 0.83742
                  }
                }
              }
              JOINT lRing1
              {
                OFFSET 8.82822 0.546677 1.51678
                CHANNELS 3 Zrotation Xrotation Yrotation
                JOINT lRing2
                {
                  OFFSET 2.60934 -0.819778 -0.0198488
                  CHANNELS 3 Zrotation Xrotation Yrotation
                  End Site
                  {
                    OFFSET 2.33842 -0.294052 0.168128
                  }
                }
              }
              JOINT lPinky1
              {
                OFFSET 8.27202 -0.0477905 -0.4584
                CHANNELS 3 Zrotation Xrotation Yrotation
                JOINT lPinky2
                {
                  OFFSET 1.82734 -0.647385 -0.700984
                  CHANNELS 3 Zrotation Xrotation Yrotation
                  End Site
                  {
                    OFFSET 1.69225 -0.51767 -0.607171
                  }
                }
              }
            }
          }
        }
      }
    }
  }
  JOINT rButtock
  {
    OFFSET -8.77824 4.35084 1.2192
    CHANNELS 3 Zrotation Xrotation Yrotation
    JOINT rThigh
    {
      OFFSET 0 -1.70687 -2.19456
      CHANNELS 3 Zrotation Xrotation Yrotation
      JOINT rShin
      {
        OFFSET 0 -36.8199 0.73152
        CHANNELS 3 Zrotation Xrotation Yrotation
        JOINT rFoot
        {
          OFFSET 0.73152 -45.1104 -5.12064
          CHANNELS 3 Zrotation Xrotation Yrotation
          End Site
          {
            OFFSET -1.1221 -3.69964 12.103
          }
        }
      }
    }
  }
  JOINT lButtock
  {
    OFFSET 8.77824 4.35084 1.2192
    CHANNELS 3 Zrotation Xrotation Yrotation
    JOINT lThigh
    {
      OFFSET 0 -1.70687 -2.19456
      CHANNELS 3 Zrotation Xrotation Yrotation
      JOINT lShin
      {
        OFFSET 0 -36.8199 0.73152
        CHANNELS 3 Zrotation Xrotation Yrotation
        JOINT lFoot
        {
          OFFSET -0.73152 -45.1104 -5.12064
          CHANNELS 3 Zrotation Xrotation Yrotation
          End Site
          {
            OFFSET 1.1221 -3.69964 12.103
          }
        }
      }
    }
  }
}
MOTION
Frames:	4
Frame Time:	0.03333
0.427092369131132 5.876439910445565 -0.54288958205053 3.4228227138519287 31.073135375976562 19.482580184936523 -6.593579292297363 15.512212753295898 4.774094581604004 5.624560356140137 -20.056127548217773 3.580836772918701 -16.100147247314453 16.263526916503906 -8.722514152526855 9.883009910583496 -36.724510192871094 2.6682920455932617 0.36777737736701965 2.624431848526001 -0.6275309920310974 0.2924472689628601 -3.1191840171813965 2.77484393119812 4.724028587341309 0.9861698746681213 2.519619941711426 52.058502197265625 25.827852249145508 4.7669358253479 -30.597387313842773 -25.851945877075195 63.181419372558594 -2.2763173580169678 -17.389774322509766 -5.232171535491943 0.07896457612514496 -4.138936996459961 -0.25692296028137207 4.378532409667969 0.2801888585090637 -6.518311023712158 -0.5812779068946838 -4.024765491485596 -1.3896540403366089 18.63533592224121 15.437782287597656 2.745149612426758 -3.7891433238983154 1.0262757539749146 -1.4807047843933105 4.361455917358398 2.693310022354126 3.247994899749756 2.976806163787842 7.394500732421875 -6.9997453689575195 11.353865623474121 3.2381606101989746 -0.8790529370307922 2.19461727142334 -5.468596935272217 1.596124291419983 9.16679573059082 -1.2707852125167847 -1.6154251098632812 -7.269426345825195 4.426177501678467 5.368177890777588 -26.489282608032227 50.422401428222656 -48.538814544677734 40.6501350402832 -24.76767349243164 -64.76228332519531 2.856611967086792 -4.992751121520996 8.48808479309082 5.098937034606934 5.740484237670898 3.2841434478759766 2.669414520263672 -0.9321802258491516 6.506284236907959 -1.9653726816177368 3.8270370960235596 2.482783079147339 -9.375568389892578 1.8422664403915405 2.1260595321655273 -0.43958717584609985 -0.8312920331954956 2.9601144790649414 -12.584877014160156 -3.051347017288208 2.0087099075317383 0.14428135752677917 -4.1820831298828125 2.8303048610687256 -8.922524452209473 1.872493863105774 -1.2212079763412476 -2.1806375980377197 3.637770891189575 0.6095001101493835 -7.487135887145996 -4.949950695037842 3.802976131439209 0.024908749386668205 -4.300932884216309 0.4465391933917999 -34.58248519897461 -33.30044174194336 -26.291236877441406 3.858457326889038 59.41105270385742 2.022761821746826 -9.129583358764648 -18.458648681640625 -0.26536622643470764 -3.8796470165252686 5.423769950866699 5.53373384475708 41.09832000732422 -43.107547760009766 35.45194625854492 9.513937950134277 66.4955062866211 -14.844095230102539 9.062501907348633 -17.395267486572266 28.076459884643555
-0.014218746304674044 17.733008406239836 -1.0905178212811677 -3.2081377506256104 14.543566703796387 11.814654350280762 -7.4073662757873535 16.94927406311035 4.741491317749023 5.3269219398498535 -14.662125587463379 3.864417552947998 -8.485821723937988 18.724323272705078 -5.878267288208008 10.219193458557129 -31.307573318481445 -0.5017688870429993 0.7197126150131226 1.0455145835876465 -2.5253756046295166 -0.7127184867858887 0.35392025113105774 -0.5286423563957214 0.11796676367521286 -1.1002037525177002 -0.08659659326076508 45.54135513305664 32.751102447509766 11.231230735778809 -30.98047637939453 -30.372026443481445 68.79935455322266 -1.7409850358963013 -9.88110637664795 -3.011965751647949 0.34611737728118896 -1.5136791467666626 -0.42100393772125244 0.3971702456474304 0.8019928932189941 0.3738498091697693 1.9469444751739502 -1.6410859823226929 -0.5200353860855103 15.342424392700195 8.893370628356934 1.0091859102249146 -0.1782878339290619 1.4481158256530762 3.1012632846832275 4.492130756378174 1.4043570756912231 -0.11053041368722916 0.0059476145543158054 1.2468035221099854 -0.03867730125784874 11.803959846496582 1.3742351531982422 2.4410502910614014 2.408475875854492 -0.35540929436683655 1.2008094787597656 3.726055860519409 -2.063891887664795 -2.096944570541382 -0.983197033405304 0.5278568863868713 0.6525112390518188 -41.321475982666016 44.291175842285156 -37.645442962646484 30.683929443359375 -31.05529022216797 -65.82801055908203 1.8780533075332642 -8.571756362915039 1.424207329750061 -0.05085936188697815 0.49045607447624207 -1.839188814163208 0.946609616279602 1.1349674463272095 0.5647973418235779 1.0447872877120972 -0.1287005990743637 1.2972439527511597 -12.101390838623047 7.29935884475708 -2.2201671600341797 -2.061821937561035 -0.114383265376091 -1.7813267707824707 -7.638897895812988 0.9865205883979797 0.8561236262321472 0.64304518699646 0.212822824716568 -0.5121768712997437 -11.627731323242188 4.303476333618164 0.8566946387290955 0.5420032143592834 0.3243490755558014 -0.6220019459724426 -4.314140319824219 -0.8982767462730408 0.5514777302742004 0.5197170972824097 -0.6887207627296448 -0.24112434685230255 -33.294921875 -38.15864944458008 -29.61318588256836 -3.0967020988464355 62.45178985595703 6.520793914794922 -6.781272888183594 -12.921087265014648 -5.379179000854492 1.4215278625488281 2.8467769622802734 2.095358371734619 38.491458892822266 -41.23954772949219 33.5284423828125 4.824990749359131 68.24249267578125 -6.678967475891113 7.648923397064209 -12.867992401123047 17.90692710876465
0.06404092087509737 37.89596930783301 -0.23582887631993923 -3.8369319438934326 6.808809757232666 7.1461501121521 -3.6281578540802 14.666261672973633 3.0429117679595947 3.638659715652466 -10.106897354125977 0.5362234711647034 -6.202544212341309 16.39043617248535 -3.4445815086364746 10.751151084899902 -26.431488037109375 -5.248623847961426 0.30711668729782104 -0.7266290187835693 -0.000508965749759227 0.11396103352308273 0.7425467371940613 -0.10576457530260086 -0.5525108575820923 0.4784240424633026 -0.5228259563446045 46.19919967651367 33.692955017089844 18.12123680114746 -28.394956588745117 -31.849477767944336 62.8687744140625 -1.7049885988235474 -10.734967231750488 -0.6076449155807495 -0.349220335483551 1.1681283712387085 -0.972830593585968 -0.24462132155895233 0.2606894373893738 0.009832293726503849 -0.4180636703968048 -0.35835525393486023 -0.27991899847984314 8.460763931274414 5.7795562744140625 0.7014650106430054 -0.12844249606132507 0.3823971152305603 -0.05353401601314545 2.7605502605438232 1.0148189067840576 0.5134267807006836 1.176390290260315 -0.1206420511007309 0.47118210792541504 10.777748107910156 0.6695621013641357 0.2657402753829956 -0.36466535925865173 0.18525706231594086 0.5384044647216797 2.2902469635009766 -0.3012637495994568 -0.02935994602739811 0.3580794334411621 -0.02341611124575138 -0.2664030194282532 -52.26617431640625 39.8112678527832 -28.037883758544922 27.592243194580078 -30.125062942504883 -59.771568298339844 2.0843656063079834 -12.186559677124023 2.010030746459961 -0.3740028738975525 -0.3895907402038574 0.33881229162216187 -0.41018593311309814 -0.04684346914291382 -0.49301305413246155 0.16278165578842163 -0.08568648248910904 0.18008556962013245 -8.424514770507812 5.784249305725098 -1.0497267246246338 -0.26290711760520935 0.26011475920677185 0.029645390808582306 -2.7705135345458984 1.755639672279358 -0.2672305107116699 -0.23163707554340363 0.8156224489212036 0.473086953163147 -11.200384140014648 0.021121617406606674 0.06573481112718582 -0.08410116285085678 -0.5445607900619507 0.509406566619873 -2.3096048831939697 -0.23511308431625366 0.006427553948014975 -0.24738848209381104 0.5596696138381958 0.5871390104293823 -31.655231475830078 -38.82218551635742 -26.487070083618164 -2.7208778858184814 65.2205810546875 4.034948348999023 -4.897231101989746 -9.692400932312012 -9.608020782470703 -0.5045346021652222 -0.6179854273796082 -0.6085279583930969 32.53955078125 -35.58191680908203 26.741708755493164 2.796257495880127 66.28607177734375 -4.7261552810668945 5.4178361892700195 -10.73786735534668 13.5155611038208
-0.18710833655744494 35.05974008517439 0.06818593856679596 -3.2081692218780518 4.214153289794922 6.751925468444824 -3.439850330352783 14.255790710449219 3.0438830852508545 2.986262559890747 -8.844038009643555 0.38087549805641174 -5.7159247398376465 15.512584686279297 -5.313030242919922 9.584010124206543 -26.18344497680664 -10.077973365783691 -0.3329915404319763 -0.2248331606388092 0.264573872089386 -0.023356622084975243 0.4730311334133148 -0.5616164803504944 -0.18168684840202332 0.15711641311645508 0.2316797971725464 45.73320770263672 32.136802673339844 20.79977035522461 -26.00029945373535 -29.245065689086914 56.15409851074219 -1.533700704574585 -8.941762924194336 -2.0660946369171143 0.2906069755554199 1.503382921218872 -0.710093080997467 -0.3823319971561432 -0.38247358798980713 -1.0343230962753296 -0.5188282132148743 -0.450958251953125 -0.1350031942129135 7.50040340423584 5.587949275970459 1.0215736627578735 -0.24497146904468536 0.37742894887924194 -0.007402142975479364 3.458301067352295 -0.06689554452896118 0.4452195465564728 0.33224931359291077 -0.5243797302246094 0.1064532920718193 10.421768188476562 1.3304038047790527 0.4987213909626007 -0.11690881848335266 0.336031049489975 -0.17393113672733307 1.5338202714920044 -0.25964707136154175 -0.6991207003593445 -0.12094412744045258 0.380720317363739 -0.20906350016593933 -59.61119842529297 42.879398345947266 -20.756610870361328 27.45122718811035 -26.986595153808594 -54.26333999633789 2.3728084564208984 -9.977139472961426 1.661973237991333 0.3095499277114868 -0.2313224822282791 0.20532114803791046 -0.18575313687324524 -0.8044003248214722 0.07796762138605118 -0.18706654012203217 -0.0115348594263196 0.31299832463264465 -7.720077037811279 5.782917022705078 -0.35281136631965637 0.4493817090988159 0.647740364074707 -0.4526943564414978 -1.7655742168426514 1.2058720588684082 0.2680288255214691 0.7611333131790161 1.1801506280899048 -0.09017885476350784 -10.749588966369629 -0.34863582253456116 -0.2691383361816406 -0.5668308734893799 -0.3879564106464386 1.1533876657485962 -1.6941708326339722 -0.4831766188144684 -0.4651608169078827 0.23691150546073914 0.09675873070955276 1.0756113529205322 -23.785877227783203 -38.950443267822266 -18.554786682128906 -1.9899492263793945 63.112247467041016 2.632439613342285 -3.5900611877441406 -10.046195030212402 -8.969808578491211 0.13766755163669586 0.581418514251709 -0.139301136136055 25.11172103881836 -32.83110427856445 18.92096519470215 1.288544774055481 60.948486328125 -2.5163891315460205 5.7948899269104 -11.123429298400879 14.796330451965332
